<?xml version="1.0" encoding="utf-8"?>
<!-- Generator: Adobe Illustrator 16.0.0, SVG Export Plug-In . SVG Version: 6.00 Build 0)  -->
<!DOCTYPE svg PUBLIC "-//W3C//DTD SVG 1.1//EN" "http://www.w3.org/Graphics/SVG/1.1/DTD/svg11.dtd">
<svg version="1.1" id="Layer_1" xmlns="http://www.w3.org/2000/svg" xmlns:xlink="http://www.w3.org/1999/xlink" x="0px" y="0px"
	 width="547.667px" height="64.521px" viewBox="0 0 547.667 64.521" enable-background="new 0 0 547.667 64.521"
	 xml:space="preserve">
<g>
	<defs>
		<rect id="SVGID_1_" x="1.945" y="-1" width="543.776" height="65.041"/>
	</defs>
	<clipPath id="SVGID_2_">
		<use xlink:href="#SVGID_1_"  overflow="visible"/>
	</clipPath>
	<g clip-path="url(#SVGID_2_)">
		<defs>
			<rect id="SVGID_3_" x="150.945" y="1.598" width="95.948" height="28.786"/>
		</defs>
		<clipPath id="SVGID_4_">
			<use xlink:href="#SVGID_3_"  overflow="visible"/>
		</clipPath>
		<g clip-path="url(#SVGID_4_)">
			<defs>
				<rect id="SVGID_5_" x="150.946" y="1.599" width="95.947" height="28.785"/>
			</defs>
			<clipPath id="SVGID_6_">
				<use xlink:href="#SVGID_5_"  overflow="visible"/>
			</clipPath>
			<g transform="matrix(1 0 0 1 0 -1.192093e-07)" clip-path="url(#SVGID_6_)">
				
					<image overflow="visible" width="280" height="84" xlink:href="EFBCE770F4726B6C.png"  transform="matrix(0.3427 0 0 0.3427 150.9463 1.5991)">
				</image>
			</g>
		</g>
	</g>
	<g clip-path="url(#SVGID_2_)">
		<defs>
			<rect id="SVGID_7_" x="5.807" y="30.384" width="53.54" height="32.67"/>
		</defs>
		<clipPath id="SVGID_8_">
			<use xlink:href="#SVGID_7_"  overflow="visible"/>
		</clipPath>
		<g clip-path="url(#SVGID_8_)">
			<defs>
				<rect id="SVGID_9_" x="5.807" y="30.384" width="53.541" height="32.672"/>
			</defs>
			<clipPath id="SVGID_10_">
				<use xlink:href="#SVGID_9_"  overflow="visible"/>
			</clipPath>
			<g transform="matrix(1 0 0 1 -4.768372e-07 0)" clip-path="url(#SVGID_10_)">
				
					<image overflow="visible" width="312" height="200" xlink:href="EFBCE770F4726B6C.jpg"  transform="matrix(0.1716 0 0 0.1634 5.8071 30.3838)">
				</image>
			</g>
		</g>
	</g>
	<g clip-path="url(#SVGID_2_)">
		<defs>
			<rect id="SVGID_11_" x="262.06" y="-1" width="69.594" height="32.67"/>
		</defs>
		<clipPath id="SVGID_12_">
			<use xlink:href="#SVGID_11_"  overflow="visible"/>
		</clipPath>
		<g clip-path="url(#SVGID_12_)">
			<defs>
				<rect id="SVGID_13_" x="262.06" y="-1" width="69.594" height="32.671"/>
			</defs>
			<clipPath id="SVGID_14_">
				<use xlink:href="#SVGID_13_"  overflow="visible"/>
			</clipPath>
			<g clip-path="url(#SVGID_14_)">
				
					<image overflow="visible" width="250" height="120" xlink:href="EFBCE770F4726B6B.jpg"  transform="matrix(0.2784 0 0 0.2723 262.0596 -1.0005)">
				</image>
			</g>
		</g>
	</g>
	<g clip-path="url(#SVGID_2_)">
		<defs>
			<rect id="SVGID_15_" x="1.945" y="4.548" width="112.835" height="28.14"/>
		</defs>
		<clipPath id="SVGID_16_">
			<use xlink:href="#SVGID_15_"  overflow="visible"/>
		</clipPath>
		<g transform="matrix(1 0 0 1 -1.192093e-07 -4.768372e-07)" clip-path="url(#SVGID_16_)">
			
				<image overflow="visible" width="413" height="103" xlink:href="EFBCE770F4726B74.jpg"  transform="matrix(0.2732 0 0 0.2732 1.9453 4.5483)">
			</image>
		</g>
	</g>
	<g clip-path="url(#SVGID_2_)">
		<defs>
			<rect id="SVGID_17_" x="448.243" y="0.599" width="87.922" height="33.824"/>
		</defs>
		<clipPath id="SVGID_18_">
			<use xlink:href="#SVGID_17_"  overflow="visible"/>
		</clipPath>
		<g clip-path="url(#SVGID_18_)">
			<defs>
				<rect id="SVGID_19_" x="448.242" y="0.599" width="87.923" height="33.824"/>
			</defs>
			<clipPath id="SVGID_20_">
				<use xlink:href="#SVGID_19_"  overflow="visible"/>
			</clipPath>
			<g clip-path="url(#SVGID_20_)">
				
					<image overflow="visible" width="230" height="90" xlink:href="EFBCE770F4726B77.jpg"  transform="matrix(0.3823 0 0 0.3758 448.2422 0.5991)">
				</image>
			</g>
		</g>
	</g>
	<g clip-path="url(#SVGID_2_)">
		<defs>
			<rect id="SVGID_21_" x="344.343" y="-1" width="84.811" height="20.74"/>
		</defs>
		<clipPath id="SVGID_22_">
			<use xlink:href="#SVGID_21_"  overflow="visible"/>
		</clipPath>
		<g clip-path="url(#SVGID_22_)">
			<defs>
				<rect id="SVGID_23_" x="344.343" y="-1" width="84.812" height="20.741"/>
			</defs>
			<clipPath id="SVGID_24_">
				<use xlink:href="#SVGID_23_"  overflow="visible"/>
			</clipPath>
			<g transform="matrix(1 0 0 1 0 -1.192093e-07)" clip-path="url(#SVGID_24_)">
				
					<image overflow="visible" width="354" height="87" xlink:href="EFBCE770F4726B75.jpg"  transform="matrix(0.2396 0 0 0.2384 344.3428 -1.0005)">
				</image>
			</g>
		</g>
	</g>
	<g clip-path="url(#SVGID_2_)">
		<defs>
			<rect id="SVGID_25_" x="62.348" y="28.69" width="42.299" height="31.383"/>
		</defs>
		<clipPath id="SVGID_26_">
			<use xlink:href="#SVGID_25_"  overflow="visible"/>
		</clipPath>
		<g clip-path="url(#SVGID_26_)">
			<defs>
				<rect id="SVGID_27_" x="62.348" y="28.689" width="42.299" height="31.384"/>
			</defs>
			<clipPath id="SVGID_28_">
				<use xlink:href="#SVGID_27_"  overflow="visible"/>
			</clipPath>
			<g transform="matrix(1 0 0 1 7.629395e-06 1.907349e-06)" clip-path="url(#SVGID_28_)">
				
					<image overflow="visible" width="180" height="134" xlink:href="EFBCE770F4726B74.png"  transform="matrix(0.235 0 0 0.2342 62.3477 28.689)">
				</image>
			</g>
		</g>
	</g>
	<g clip-path="url(#SVGID_2_)">
		<defs>
			<rect id="SVGID_29_" x="108.646" y="21.169" width="42.299" height="42.298"/>
		</defs>
		<clipPath id="SVGID_30_">
			<use xlink:href="#SVGID_29_"  overflow="visible"/>
		</clipPath>
		<g transform="matrix(1 0 0 1 7.629395e-06 1.907349e-06)" clip-path="url(#SVGID_30_)">
			
				<image overflow="visible" width="225" height="225" xlink:href="EFBCE770F4726B7C.jpg"  transform="matrix(0.188 0 0 0.188 108.6465 21.1694)">
			</image>
		</g>
	</g>
	<g clip-path="url(#SVGID_2_)">
		<defs>
			<rect id="SVGID_31_" x="153.945" y="34.271" width="103.645" height="27.77"/>
		</defs>
		<clipPath id="SVGID_32_">
			<use xlink:href="#SVGID_31_"  overflow="visible"/>
		</clipPath>
		<g transform="matrix(1 0 0 1 -1.525879e-05 -3.814697e-06)" clip-path="url(#SVGID_32_)">
			
				<image overflow="visible" width="265" height="71" xlink:href="EFBCE770F4726B7F.jpg"  transform="matrix(0.3911 0 0 0.3911 153.9453 34.2705)">
			</image>
		</g>
	</g>
	<g clip-path="url(#SVGID_2_)">
		<defs>
			<rect id="SVGID_33_" x="343.487" y="20.724" width="95.947" height="43.316"/>
		</defs>
		<clipPath id="SVGID_34_">
			<use xlink:href="#SVGID_33_"  overflow="visible"/>
		</clipPath>
		<g clip-path="url(#SVGID_34_)">
			<defs>
				<rect id="SVGID_35_" x="343.487" y="20.724" width="95.947" height="43.316"/>
			</defs>
			<clipPath id="SVGID_36_">
				<use xlink:href="#SVGID_35_"  overflow="visible"/>
			</clipPath>
			<g transform="matrix(1 0 0 1 -3.051758e-05 0)" clip-path="url(#SVGID_36_)">
				
					<image overflow="visible" width="400" height="181" xlink:href="A64D7353548986FB.png"  transform="matrix(0.2399 0 0 0.2393 343.4873 20.7241)">
				</image>
			</g>
		</g>
	</g>
	<rect x="253.564" y="32.45" clip-path="url(#SVGID_2_)" fill="#010101" width="87.922" height="30.605"/>
	<g clip-path="url(#SVGID_2_)">
		<defs>
			<rect id="SVGID_37_" x="1.945" y="-1" width="543.776" height="65.041"/>
		</defs>
		<clipPath id="SVGID_38_">
			<use xlink:href="#SVGID_37_"  overflow="visible"/>
		</clipPath>
		<g opacity="0.77" clip-path="url(#SVGID_38_)">
			<g>
				<defs>
					<rect id="SVGID_39_" x="248.589" y="20.689" width="96.533" height="41.671"/>
				</defs>
				<clipPath id="SVGID_40_">
					<use xlink:href="#SVGID_39_"  overflow="visible"/>
				</clipPath>
				<g clip-path="url(#SVGID_40_)">
					<defs>
						<rect id="SVGID_41_" x="257.589" y="28.69" width="78.533" height="32.67"/>
					</defs>
					<clipPath id="SVGID_42_">
						<use xlink:href="#SVGID_41_"  overflow="visible"/>
					</clipPath>
					<g clip-path="url(#SVGID_42_)">
						<defs>
							<rect id="SVGID_43_" x="257.59" y="28.689" width="78.533" height="32.671"/>
						</defs>
						<clipPath id="SVGID_44_">
							<use xlink:href="#SVGID_43_"  overflow="visible"/>
						</clipPath>
						<g transform="matrix(1 0 0 1 -3.051758e-05 0)" clip-path="url(#SVGID_44_)">
							
								<image overflow="visible" width="180" height="79" xlink:href="A64D7353548986F9.png"  transform="matrix(0.4363 0 0 0.4136 257.5898 28.689)">
							</image>
						</g>
					</g>
				</g>
			</g>
		</g>
	</g>
	<g clip-path="url(#SVGID_2_)">
		<defs>
			<rect id="SVGID_45_" x="441.688" y="36.417" width="104.034" height="27.623"/>
		</defs>
		<clipPath id="SVGID_46_">
			<use xlink:href="#SVGID_45_"  overflow="visible"/>
		</clipPath>
		<g clip-path="url(#SVGID_46_)">
			<defs>
				<rect id="SVGID_47_" x="441.687" y="36.417" width="105.151" height="27.623"/>
			</defs>
			<clipPath id="SVGID_48_">
				<use xlink:href="#SVGID_47_"  overflow="visible"/>
			</clipPath>
			<g transform="matrix(1 0 0 1 0 0)" clip-path="url(#SVGID_48_)">
				
					<image overflow="visible" width="335" height="88" xlink:href="A64D7353548986FF.jpg"  transform="matrix(0.3139 0 0 0.3139 441.6865 36.417)">
				</image>
			</g>
		</g>
	</g>
</g>
</svg>
